<svg viewBox="0 0 100 100" xmlns="http://www.w3.org/2000/svg" fill-rule="evenodd" clip-rule="evenodd" stroke-linejoin="round" stroke-miterlimit="1.414">
  <path fill="#fff" d="M0 0h100v100H0z"/>
  <path d="M100 100H52.91c.573-.69 1.07-1.445 1.495-2.26.812-1.562 1.22-3.422 1.22-5.578 0-2.25-.548-4.148-1.642-5.695-1.094-1.547-2.53-2.852-4.312-3.914-1.78-1.063-3.8-1.914-6.07-2.555-2.26-.64-5.79-1.35-10.57-2.133-4.53-.625-7.68-1.1-9.47-1.43-1.78-.328-3.21-.726-4.31-1.195-1.09-.468-1.64-1.11-1.64-1.922 0-.718.27-1.382.8-1.992.53-.61 1.17-1.148 1.9-1.617.74-.47 1.5-.85 2.28-1.13.78-.28 1.42-.46 1.92-.52 2.28.53 4.487.79 6.61.79 2.5 0 4.908-.35 7.22-1.054 2.31-.704 4.36-1.78 6.14-3.235 1.78-1.452 3.205-3.296 4.267-5.53 1.063-2.234 1.594-4.883 1.594-7.945 0-2.033-.274-3.806-.82-5.32-.547-1.517-1.21-2.87-1.993-4.056 1.03-.313 2.078-.547 3.14-.703 1.063-.155 2.22-.22 3.47-.186l3.14.098.844-6c-2.063 0-4.243.186-6.54.56-2.297.373-4.664 1.03-7.1 1.97-1.877-1.19-3.89-2.08-6.05-2.675-2.153-.594-4.31-.89-6.465-.89-2.47 0-4.89.382-7.267 1.15-2.377.765-4.486 1.882-6.33 3.35-1.845 1.47-3.337 3.305-4.478 5.508-1.14 2.203-1.71 4.727-1.71 7.57 0 3.5.67 6.415 2.015 8.743 1.343 2.328 3.327 4.242 5.952 5.742-.845.216-1.814.575-2.908 1.075s-2.137 1.127-3.12 1.877-1.81 1.595-2.485 2.53c-.67.94-1.008 1.97-1.008 3.096 0 1.03.2 1.93.61 2.694.403.77.93 1.44 1.57 2.02.64.577 1.365 1.093 2.18 1.546.81.452 1.64.882 2.48 1.29-1.066.717-2.07 1.53-3.027 2.436-.95.905-1.794 1.89-2.53 2.952-.733 1.06-1.31 2.18-1.733 3.35-.425 1.17-.635 2.35-.635 3.54 0 2.17.463 4.045 1.39 5.632H0V0h100v100zm-79.055 0l-.103-.057c-1.28-.718-2.328-1.695-3.14-2.93-.813-1.234-1.22-2.804-1.22-4.71 0-1.438.384-2.922 1.15-4.453.765-1.532 1.85-3.063 3.257-4.594.5.062 1.26.133 2.29.21 1.03.08 2.22.188 3.58.33 1.36.14 3.26.397 5.692.772 3.657.688 6.243 1.297 7.76 1.83 1.515.53 2.83 1.124 3.94 1.78 1.11.656 2 1.414 2.67 2.273.67.86 1.007 1.84 1.007 2.93 0 1.13-.32 2.12-.96 2.98-.64.86-1.477 1.6-2.508 2.23-.91.55-1.923 1.03-3.038 1.42H20.94zm9.77-35.92c1.937 0 12.004-10.733 12.004-12.765 0-1.53-10.27-12.042-12.15-12.042-2.28 0-4.17.367-5.67 1.1-.75.366-2.54 5.58-2.41 11.096.13 5.6 2.2 11.5 2.95 11.87 1.48.73 3.24.73 5.27.73z" fill="url(#a)"/>
  <defs>
    <linearGradient id="a" x2="1" gradientUnits="userSpaceOnUse" gradientTransform="matrix(1 100 -100 1 50 0)">
      <stop offset="0%" stop-color="#ffde65"/>
      <stop offset="100%" stop-color="#ffc801"/>
    </linearGradient>
  </defs>
</svg>
